<svg id="SvgjsSvg1006" width="973" height="699" xmlns="http://www.w3.org/2000/svg" version="1.1" xmlns:xlink="http://www.w3.org/1999/xlink" xmlns:svgjs="http://svgjs.com/svgjs"><defs id="SvgjsDefs1007"><marker id="SvgjsMarker1020" markerWidth="16" markerHeight="12" refX="16" refY="6" viewBox="0 0 16 12" orient="auto" markerUnits="userSpaceOnUse" stroke-dasharray="0,0"><path id="SvgjsPath1021" d="M0,2 L14,6 L0,11 L0,2" fill="#323232" stroke="#323232" stroke-width="2"></path></marker><marker id="SvgjsMarker1038" markerWidth="16" markerHeight="12" refX="16" refY="6" viewBox="0 0 16 12" orient="auto" markerUnits="userSpaceOnUse" stroke-dasharray="0,0"><path id="SvgjsPath1039" d="M0,2 L14,6 L0,11 L0,2" fill="#323232" stroke="#323232" stroke-width="2"></path></marker><marker id="SvgjsMarker1056" markerWidth="16" markerHeight="12" refX="16" refY="6" viewBox="0 0 16 12" orient="auto" markerUnits="userSpaceOnUse" stroke-dasharray="0,0"><path id="SvgjsPath1057" d="M0,2 L14,6 L0,11 L0,2" fill="#323232" stroke="#323232" stroke-width="2"></path></marker><marker id="SvgjsMarker1102" markerWidth="16" markerHeight="12" refX="16" refY="6" viewBox="0 0 16 12" orient="auto" markerUnits="userSpaceOnUse" stroke-dasharray="0,0"><path id="SvgjsPath1103" d="M0,2 L14,6 L0,11 L0,2" fill="#323232" stroke="#323232" stroke-width="2"></path></marker><marker id="SvgjsMarker1106" markerWidth="16" markerHeight="12" refX="16" refY="6" viewBox="0 0 16 12" orient="auto" markerUnits="userSpaceOnUse" stroke-dasharray="0,0"><path id="SvgjsPath1107" d="M0,2 L14,6 L0,11 L0,2" fill="#323232" stroke="#323232" stroke-width="2"></path></marker></defs><g id="SvgjsG1008" transform="translate(177,25)"><path id="SvgjsPath1009" d="M 0 4Q 0 0 4 0L 767 0Q 771 0 771 4L 771 645Q 771 649 767 649L 4 649Q 0 649 0 645Z" stroke="rgba(50,50,50,1)" stroke-width="2" fill-opacity="1" fill="#ffffff"></path><g id="SvgjsG1010"><text id="SvgjsText1011" font-family="微软雅黑" text-anchor="middle" font-size="13px" width="751px" fill="#323232" font-weight="400" align="middle" anchor="middle" family="微软雅黑" size="13px" weight="400" font-style="" opacity="1" y="314.55" transform="rotate(0)"></text></g></g><g id="SvgjsG1012" transform="translate(163,29)"><path id="SvgjsPath1013" d="M 0 0L 120 0L 120 40L 0 40Z" stroke="none" fill="none"></path><g id="SvgjsG1014"><text id="SvgjsText1015" font-family="黑体" text-anchor="middle" font-size="20px" width="120px" fill="#323232" font-weight="700" align="middle" anchor="middle" family="黑体" size="20px" weight="700" font-style="" opacity="1" y="4.5" transform="rotate(0)"><tspan id="SvgjsTspan1016" dy="25" x="60"><tspan id="SvgjsTspan1017" style="text-decoration:;">容器</tspan></tspan></text></g></g><g id="SvgjsG1018"><path id="SvgjsPath1019" d="M30 205L101 205L101 205L172 205" stroke="#323232" stroke-width="2" fill="none" marker-end="url(#SvgjsMarker1020)"></path><rect id="SvgjsRect1022" width="38" height="24" x="82" y="193" fill="#ffffff"></rect><text id="SvgjsText1023" font-family="微软雅黑" text-anchor="middle" font-size="19px" width="38px" fill="#323232" font-weight="700" align="top" anchor="middle" family="微软雅黑" size="19px" weight="700" font-style="" opacity="1" y="190.15" transform="rotate(0)"><tspan id="SvgjsTspan1024" dy="23" x="101"><tspan id="SvgjsTspan1025" style="text-decoration:;">请求</tspan></tspan></text></g><g id="SvgjsG1026" transform="translate(248,91)"><path id="SvgjsPath1027" d="M 0 4Q 0 0 4 0L 16 0Q 20 0 20 4L 20 385Q 20 389 16 389L 4 389Q 0 389 0 385Z" stroke="rgba(50,50,50,1)" stroke-width="2" fill-opacity="1" fill="#ffffff"></path><g id="SvgjsG1028"><text id="SvgjsText1029" font-family="微软雅黑" text-anchor="middle" font-size="13px" width="0px" fill="#323232" font-weight="400" align="middle" anchor="middle" family="微软雅黑" size="13px" weight="400" font-style="" opacity="1" y="184.55" transform="rotate(0)"></text></g></g><g id="SvgjsG1030" transform="translate(153,103)"><path id="SvgjsPath1031" d="M 0 0L 120 0L 120 40L 0 40Z" stroke="none" fill="none"></path><g id="SvgjsG1032"><text id="SvgjsText1033" font-family="微软雅黑" text-anchor="middle" font-size="17px" width="120px" fill="#323232" font-weight="700" align="middle" anchor="middle" family="微软雅黑" size="17px" weight="700" font-style="" opacity="1" y="6.95" transform="rotate(0)"><tspan id="SvgjsTspan1034" dy="21" x="60"><tspan id="SvgjsTspan1035" style="text-decoration:;">过滤器</tspan></tspan></text></g></g><g id="SvgjsG1036"><path id="SvgjsPath1037" d="M177 205L256.5 205L256.5 207L336 207" stroke="#323232" stroke-width="2" fill="none" marker-end="url(#SvgjsMarker1038)"></path><rect id="SvgjsRect1040" width="85" height="21" x="214" y="195.5" fill="#ffffff"></rect><text id="SvgjsText1041" font-family="微软雅黑" text-anchor="middle" font-size="17px" width="85px" fill="#323232" font-weight="700" align="top" anchor="middle" family="微软雅黑" size="17px" weight="700" font-style="" opacity="1" y="192.95" transform="rotate(0)"><tspan id="SvgjsTspan1042" dy="21" x="256.5"><tspan id="SvgjsTspan1043" style="text-decoration:;">通过过滤器</tspan></tspan></text></g><g id="SvgjsG1044" transform="translate(336,65)"><path id="SvgjsPath1045" d="M 0 0L 27 0L 27 326L 0 326Z" stroke="rgba(50,50,50,1)" stroke-width="2" fill-opacity="1" fill="#ffffff"></path><g id="SvgjsG1046"><text id="SvgjsText1047" font-family="微软雅黑" text-anchor="middle" font-size="13px" width="7px" fill="#323232" font-weight="400" align="middle" anchor="middle" family="微软雅黑" size="13px" weight="400" font-style="" opacity="1" y="153.05" transform="rotate(0)"></text></g></g><g id="SvgjsG1048" transform="translate(277,401)"><path id="SvgjsPath1049" d="M 0 0L 203 0L 203 34L 0 34Z" stroke="none" fill="none"></path><g id="SvgjsG1050"><text id="SvgjsText1051" font-family="&quot;Lucida Console&quot;" text-anchor="middle" font-size="16px" width="203px" fill="#323232" font-weight="700" align="middle" anchor="middle" family="&quot;Lucida Console&quot;" size="16px" weight="700" font-style="" opacity="1" y="4.6" transform="rotate(0)"><tspan id="SvgjsTspan1052" dy="20" x="101.5"><tspan id="SvgjsTspan1053" style="text-decoration:;">DispatcherServlet</tspan></tspan></text></g></g><g id="SvgjsG1054"><path id="SvgjsPath1055" d="M363 97L690 97L690 147" stroke="#323232" stroke-width="2" fill="none" marker-end="url(#SvgjsMarker1056)"></path><rect id="SvgjsRect1058" width="90" height="23" x="506.5" y="85.5" fill="#ffffff"></rect><text id="SvgjsText1059" font-family="微软雅黑" text-anchor="middle" font-size="18px" width="90px" fill="#323232" font-weight="700" align="top" anchor="middle" family="微软雅黑" size="18px" weight="700" font-style="" opacity="1" y="82.8" transform="rotate(0)"><tspan id="SvgjsTspan1060" dy="22" x="551.5"><tspan id="SvgjsTspan1061" style="text-decoration:;">匹配执行链</tspan></tspan></text></g><g id="SvgjsG1062" transform="translate(467,147)"><path id="SvgjsPath1063" d="M 0 220C 0 -73.33333333333333 446 -73.33333333333333 446 220C 446 513.3333333333334 0 513.3333333333334 0 220Z" stroke="rgba(50,50,50,1)" stroke-width="2" fill-opacity="1" fill="#ffffff"></path><g id="SvgjsG1064"><text id="SvgjsText1065" font-family="微软雅黑" text-anchor="middle" font-size="13px" width="426px" fill="#323232" font-weight="400" align="middle" anchor="middle" family="微软雅黑" size="13px" weight="400" font-style="" opacity="1" y="210.05" transform="rotate(0)"></text></g></g><g id="SvgjsG1066" transform="translate(522,202)"><path id="SvgjsPath1067" d="M 0 165C 0 -55 351 -55 351 165C 351 385 0 385 0 165Z" stroke="rgba(50,50,50,1)" stroke-width="2" fill-opacity="1" fill="#ffffff"></path><g id="SvgjsG1068"><text id="SvgjsText1069" font-family="微软雅黑" text-anchor="middle" font-size="13px" width="331px" fill="#323232" font-weight="400" align="middle" anchor="middle" family="微软雅黑" size="13px" weight="400" font-style="" opacity="1" y="155.05" transform="rotate(0)"></text></g></g><g id="SvgjsG1070" transform="translate(574,171)"><path id="SvgjsPath1071" d="M 0 0L 170 0L 170 25L 0 25Z" stroke="none" fill="none"></path><g id="SvgjsG1072"><text id="SvgjsText1073" font-family="微软雅黑" text-anchor="middle" font-size="17px" width="170px" fill="#323232" font-weight="700" align="middle" anchor="middle" family="微软雅黑" size="17px" weight="700" font-style="" opacity="1" y="-11.05" transform="rotate(0)"><tspan id="SvgjsTspan1074" dy="21" x="85"><tspan id="SvgjsTspan1075" style="text-decoration:;">第一个过滤器的 </tspan></tspan><tspan id="SvgjsTspan1076" dy="21" x="85"><tspan id="SvgjsTspan1077" style="text-decoration:;">PreHandle方法</tspan></tspan></text></g></g><g id="SvgjsG1078" transform="translate(623,541)"><path id="SvgjsPath1079" d="M 0 0L 170 0L 170 25L 0 25Z" stroke="none" fill="none"></path><g id="SvgjsG1080"><text id="SvgjsText1081" font-family="微软雅黑" text-anchor="middle" font-size="17px" width="170px" fill="#323232" font-weight="700" align="middle" anchor="middle" family="微软雅黑" size="17px" weight="700" font-style="" opacity="1" y="-11.05" transform="rotate(0)"><tspan id="SvgjsTspan1082" dy="21" x="85"><tspan id="SvgjsTspan1083" style="text-decoration:;">第一个过滤器的 </tspan></tspan><tspan id="SvgjsTspan1084" dy="21" x="85"><tspan id="SvgjsTspan1085" style="text-decoration:;">postHandle方法</tspan></tspan></text></g></g><g id="SvgjsG1086" transform="translate(623,314)"><path id="SvgjsPath1087" d="M 0 63C 0 -21 135 -21 135 63C 135 147 0 147 0 63Z" stroke="rgba(50,50,50,1)" stroke-width="2" fill-opacity="1" fill="#ffffff"></path><g id="SvgjsG1088"><text id="SvgjsText1089" font-family="&quot;Lucida Console&quot;" text-anchor="middle" font-size="18px" width="115px" fill="#323232" font-weight="700" align="middle" anchor="middle" family="&quot;Lucida Console&quot;" size="18px" weight="700" font-style="" opacity="1" y="37.3" transform="rotate(0)"><tspan id="SvgjsTspan1090" dy="22" x="67.5"><tspan id="SvgjsTspan1091" style="text-decoration:;">Handler / </tspan></tspan><tspan id="SvgjsTspan1092" dy="22" x="67.5"><tspan id="SvgjsTspan1093" style="text-decoration:;">Controller</tspan></tspan></text></g></g><g id="SvgjsG1094" transform="translate(614,236)"><path id="SvgjsPath1095" d="M 0 0L 173.5 0L 173.5 49L 0 49Z" stroke="none" fill="none"></path><g id="SvgjsG1096"><text id="SvgjsText1097" font-family="黑体" text-anchor="middle" font-size="15px" width="174px" fill="#323232" font-weight="700" align="middle" anchor="middle" family="黑体" size="15px" weight="700" font-style="" opacity="1" y="12.75" transform="rotate(0)"><tspan id="SvgjsTspan1098" dy="18" x="87"><tspan id="SvgjsTspan1099" style="text-decoration:;">更多的过滤器。。。。。</tspan></tspan></text></g></g><g id="SvgjsG1100"><path id="SvgjsPath1101" d="M690.5 440L690.5 490.5L699 490.5L699 541" stroke="#323232" stroke-width="2" fill="none" marker-end="url(#SvgjsMarker1102)"></path></g><g id="SvgjsG1104"><path id="SvgjsPath1105" d="M690 587L690 625L25 625" stroke="#323232" stroke-width="2" fill="none" marker-end="url(#SvgjsMarker1106)"></path><rect id="SvgjsRect1108" width="42" height="26" x="355.5" y="612" fill="#ffffff"></rect><text id="SvgjsText1109" font-family="微软雅黑" text-anchor="middle" font-size="21px" width="42px" fill="#323232" font-weight="700" align="top" anchor="middle" family="微软雅黑" size="21px" weight="700" font-style="" opacity="1" y="606.85" transform="rotate(0)"><tspan id="SvgjsTspan1110" dy="26" x="376.5"><tspan id="SvgjsTspan1111" style="text-decoration:;">响应</tspan></tspan></text></g><g id="SvgjsG1112" transform="translate(302,42)"><path id="SvgjsPath1113" d="M 0 4Q 0 0 4 0L 616 0Q 620 0 620 4L 620 601Q 620 605 616 605L 4 605Q 0 605 0 601Z" stroke="rgba(255,51,51,1)" stroke-width="2" fill="none"></path><g id="SvgjsG1114"><text id="SvgjsText1115" font-family="微软雅黑" text-anchor="middle" font-size="13px" width="600px" fill="#323232" font-weight="400" align="middle" anchor="middle" family="微软雅黑" size="13px" weight="400" font-style="" opacity="1" y="292.55" transform="rotate(0)"></text></g></g><g id="SvgjsG1116" transform="translate(371,37)"><path id="SvgjsPath1117" d="M 0 0L 120 0L 120 40L 0 40Z" stroke="none" fill="none"></path><g id="SvgjsG1118"><text id="SvgjsText1119" font-family="微软雅黑" text-anchor="middle" font-size="17px" width="120px" fill="#ff3333" font-weight="700" align="middle" anchor="middle" family="微软雅黑" size="17px" weight="700" font-style="" opacity="1" y="6.95" transform="rotate(0)"><tspan id="SvgjsTspan1120" dy="21" x="60"><tspan id="SvgjsTspan1121" style="text-decoration:;">Spring容器</tspan></tspan></text></g></g></svg>