<svg id="SvgjsSvg1006" width="973.4124908447266" height="699" xmlns="http://www.w3.org/2000/svg" version="1.1" xmlns:xlink="http://www.w3.org/1999/xlink" xmlns:svgjs="http://svgjs.com/svgjs"><defs id="SvgjsDefs1007"><marker id="SvgjsMarker1020" markerWidth="16" markerHeight="12" refX="16" refY="6" viewBox="0 0 16 12" orient="auto" markerUnits="userSpaceOnUse" stroke-dasharray="0,0"><path id="SvgjsPath1021" d="M0,2 L14,6 L0,11 L0,2" fill="#323232" stroke="#323232" stroke-width="2"></path></marker><marker id="SvgjsMarker1038" markerWidth="16" markerHeight="12" refX="16" refY="6" viewBox="0 0 16 12" orient="auto" markerUnits="userSpaceOnUse" stroke-dasharray="0,0"><path id="SvgjsPath1039" d="M0,2 L14,6 L0,11 L0,2" fill="#323232" stroke="#323232" stroke-width="2"></path></marker><marker id="SvgjsMarker1056" markerWidth="16" markerHeight="12" refX="16" refY="6" viewBox="0 0 16 12" orient="auto" markerUnits="userSpaceOnUse" stroke-dasharray="0,0"><path id="SvgjsPath1057" d="M0,2 L14,6 L0,11 L0,2" fill="#323232" stroke="#323232" stroke-width="2"></path></marker><marker id="SvgjsMarker1104" markerWidth="16" markerHeight="12" refX="16" refY="6" viewBox="0 0 16 12" orient="auto" markerUnits="userSpaceOnUse" stroke-dasharray="0,0"><path id="SvgjsPath1105" d="M0,2 L14,6 L0,11 L0,2" fill="#323232" stroke="#323232" stroke-width="2"></path></marker><marker id="SvgjsMarker1108" markerWidth="16" markerHeight="12" refX="16" refY="6" viewBox="0 0 16 12" orient="auto" markerUnits="userSpaceOnUse" stroke-dasharray="0,0"><path id="SvgjsPath1109" d="M0,2 L14,6 L0,11 L0,2" fill="#323232" stroke="#323232" stroke-width="2"></path></marker><marker id="SvgjsMarker1126" markerWidth="16" markerHeight="12" refX="16" refY="6" viewBox="0 0 16 12" orient="auto" markerUnits="userSpaceOnUse" stroke-dasharray="0,0"><path id="SvgjsPath1127" d="M0,2 L14,6 L0,11 L0,2" fill="#323232" stroke="#323232" stroke-width="2"></path></marker><marker id="SvgjsMarker1134" markerWidth="16" markerHeight="12" refX="16" refY="6" viewBox="0 0 16 12" orient="auto" markerUnits="userSpaceOnUse" stroke-dasharray="0,0"><path id="SvgjsPath1135" d="M0,2 L14,6 L0,11 L0,2" fill="#323232" stroke="#323232" stroke-width="2"></path></marker><marker id="SvgjsMarker1138" markerWidth="16" markerHeight="12" refX="16" refY="6" viewBox="0 0 16 12" orient="auto" markerUnits="userSpaceOnUse" stroke-dasharray="0,0"><path id="SvgjsPath1139" d="M0,2 L14,6 L0,11 L0,2" fill="#323232" stroke="#323232" stroke-width="2"></path></marker><marker id="SvgjsMarker1142" markerWidth="16" markerHeight="12" refX="16" refY="6" viewBox="0 0 16 12" orient="auto" markerUnits="userSpaceOnUse" stroke-dasharray="0,0"><path id="SvgjsPath1143" d="M0,2 L14,6 L0,11 L0,2" fill="#323232" stroke="#323232" stroke-width="2"></path></marker></defs><g id="SvgjsG1008" transform="translate(177.41250610351562,24.99999237060547)"><path id="SvgjsPath1009" d="M 0 4Q 0 0 4 0L 767 0Q 771 0 771 4L 771 645Q 771 649 767 649L 4 649Q 0 649 0 645Z" stroke="rgba(50,50,50,1)" stroke-width="2" fill-opacity="1" fill="#ffffff"></path><g id="SvgjsG1010"><text id="SvgjsText1011" font-family="微软雅黑" text-anchor="middle" font-size="13px" width="751px" fill="#323232" font-weight="400" align="middle" anchor="middle" family="微软雅黑" size="13px" weight="400" font-style="" opacity="1" y="314.55" transform="rotate(0)"></text></g></g><g id="SvgjsG1012" transform="translate(163.41250610351562,28.99999237060547)"><path id="SvgjsPath1013" d="M 0 0L 120 0L 120 40L 0 40Z" stroke="none" fill="none"></path><g id="SvgjsG1014"><text id="SvgjsText1015" font-family="黑体" text-anchor="middle" font-size="20px" width="120px" fill="#323232" font-weight="700" align="middle" anchor="middle" family="黑体" size="20px" weight="700" font-style="" opacity="1" y="4.5" transform="rotate(0)"><tspan id="SvgjsTspan1016" dy="25" x="60"><tspan id="SvgjsTspan1017" style="text-decoration:;">容器</tspan></tspan></text></g></g><g id="SvgjsG1018"><path id="SvgjsPath1019" d="M30.412506103515625 204.99999237060547L101.41250610351562 204.99999237060547L101.41250610351562 204.99999237060547L172.41250610351562 204.99999237060547" stroke="#323232" stroke-width="2" fill="none" marker-end="url(#SvgjsMarker1020)"></path><rect id="SvgjsRect1022" width="38" height="24" x="82.41250610351562" y="192.99999237060547" fill="#ffffff"></rect><text id="SvgjsText1023" font-family="微软雅黑" text-anchor="middle" font-size="19px" width="38px" fill="#323232" font-weight="700" align="top" anchor="middle" family="微软雅黑" size="19px" weight="700" font-style="" opacity="1" y="190.14999237060547" transform="rotate(0)"><tspan id="SvgjsTspan1024" dy="23" x="101.41250610351562"><tspan id="SvgjsTspan1025" style="text-decoration:;">请求</tspan></tspan></text></g><g id="SvgjsG1026" transform="translate(248.41250610351562,90.99999237060547)"><path id="SvgjsPath1027" d="M 0 4Q 0 0 4 0L 16 0Q 20 0 20 4L 20 385Q 20 389 16 389L 4 389Q 0 389 0 385Z" stroke="rgba(50,50,50,1)" stroke-width="2" fill-opacity="1" fill="#ffffff"></path><g id="SvgjsG1028"><text id="SvgjsText1029" font-family="微软雅黑" text-anchor="middle" font-size="13px" width="0px" fill="#323232" font-weight="400" align="middle" anchor="middle" family="微软雅黑" size="13px" weight="400" font-style="" opacity="1" y="184.55" transform="rotate(0)"></text></g></g><g id="SvgjsG1030" transform="translate(153.41250610351562,102.99999237060547)"><path id="SvgjsPath1031" d="M 0 0L 120 0L 120 40L 0 40Z" stroke="none" fill="none"></path><g id="SvgjsG1032"><text id="SvgjsText1033" font-family="微软雅黑" text-anchor="middle" font-size="17px" width="120px" fill="#323232" font-weight="700" align="middle" anchor="middle" family="微软雅黑" size="17px" weight="700" font-style="" opacity="1" y="6.95" transform="rotate(0)"><tspan id="SvgjsTspan1034" dy="21" x="60"><tspan id="SvgjsTspan1035" style="text-decoration:;">过滤器</tspan></tspan></text></g></g><g id="SvgjsG1036"><path id="SvgjsPath1037" d="M177.41250610351562 204.99999237060547L256.9125061035156 204.99999237060547L256.9125061035156 206.99999237060547L336.4125061035156 206.99999237060547" stroke="#323232" stroke-width="2" fill="none" marker-end="url(#SvgjsMarker1038)"></path><rect id="SvgjsRect1040" width="85" height="21" x="214.41250610351562" y="195.49999237060547" fill="#ffffff"></rect><text id="SvgjsText1041" font-family="微软雅黑" text-anchor="middle" font-size="17px" width="85px" fill="#323232" font-weight="700" align="top" anchor="middle" family="微软雅黑" size="17px" weight="700" font-style="" opacity="1" y="192.94999237060546" transform="rotate(0)"><tspan id="SvgjsTspan1042" dy="21" x="256.9125061035156"><tspan id="SvgjsTspan1043" style="text-decoration:;">通过过滤器</tspan></tspan></text></g><g id="SvgjsG1044" transform="translate(336.4125061035156,64.99999237060547)"><path id="SvgjsPath1045" d="M 0 0L 27 0L 27 326L 0 326Z" stroke="rgba(50,50,50,1)" stroke-width="2" fill-opacity="1" fill="#ffffff"></path><g id="SvgjsG1046"><text id="SvgjsText1047" font-family="微软雅黑" text-anchor="middle" font-size="13px" width="7px" fill="#323232" font-weight="400" align="middle" anchor="middle" family="微软雅黑" size="13px" weight="400" font-style="" opacity="1" y="153.05" transform="rotate(0)"></text></g></g><g id="SvgjsG1048" transform="translate(261.4125061035156,400.99999237060547)"><path id="SvgjsPath1049" d="M 0 0L 203 0L 203 34L 0 34Z" stroke="none" fill="none"></path><g id="SvgjsG1050"><text id="SvgjsText1051" font-family="&quot;Lucida Console&quot;" text-anchor="middle" font-size="16px" width="203px" fill="#323232" font-weight="700" align="middle" anchor="middle" family="&quot;Lucida Console&quot;" size="16px" weight="700" font-style="" opacity="1" y="4.6" transform="rotate(0)"><tspan id="SvgjsTspan1052" dy="20" x="101.5"><tspan id="SvgjsTspan1053" style="text-decoration:;">DispatcherServlet</tspan></tspan></text></g></g><g id="SvgjsG1054"><path id="SvgjsPath1055" d="M363.4125061035156 96.99999237060547L690.4125061035156 96.99999237060547L690.4125061035156 146.99999237060547" stroke="#323232" stroke-width="2" fill="none" marker-end="url(#SvgjsMarker1056)"></path><rect id="SvgjsRect1058" width="90" height="22" x="506.9125061035156" y="85.99999237060547" fill="#ffffff"></rect><text id="SvgjsText1059" font-family="微软雅黑" text-anchor="middle" font-size="18px" width="90px" fill="#323232" font-weight="700" align="top" anchor="middle" family="微软雅黑" size="18px" weight="700" font-style="" opacity="1" y="83.29999237060547" transform="rotate(0)"><tspan id="SvgjsTspan1060" dy="22" x="551.9125061035156"><tspan id="SvgjsTspan1061" style="text-decoration:;">匹配执行链</tspan></tspan></text></g><g id="SvgjsG1062" transform="translate(467.4125061035156,146.99999237060547)"><path id="SvgjsPath1063" d="M 0 220C 0 -73.33333333333333 446 -73.33333333333333 446 220C 446 513.3333333333334 0 513.3333333333334 0 220Z" stroke="rgba(50,50,50,1)" stroke-width="2" fill-opacity="1" fill="#ffffff"></path><g id="SvgjsG1064"><text id="SvgjsText1065" font-family="微软雅黑" text-anchor="middle" font-size="13px" width="426px" fill="#323232" font-weight="400" align="middle" anchor="middle" family="微软雅黑" size="13px" weight="400" font-style="" opacity="1" y="210.05" transform="rotate(0)"></text></g></g><g id="SvgjsG1066" transform="translate(522.4125061035156,201.99999237060547)"><path id="SvgjsPath1067" d="M 0 165C 0 -55 351 -55 351 165C 351 385 0 385 0 165Z" stroke="rgba(50,50,50,1)" stroke-width="2" fill-opacity="1" fill="#ffffff"></path><g id="SvgjsG1068"><text id="SvgjsText1069" font-family="微软雅黑" text-anchor="middle" font-size="13px" width="331px" fill="#323232" font-weight="400" align="middle" anchor="middle" family="微软雅黑" size="13px" weight="400" font-style="" opacity="1" y="155.05" transform="rotate(0)"></text></g></g><g id="SvgjsG1070" transform="translate(605.9125061035156,170.99999237060547)"><path id="SvgjsPath1071" d="M 0 0L 170 0L 170 25L 0 25Z" stroke="none" fill="none"></path><g id="SvgjsG1072"><text id="SvgjsText1073" font-family="微软雅黑" text-anchor="middle" font-size="17px" width="170px" fill="#323232" font-weight="700" align="middle" anchor="middle" family="微软雅黑" size="17px" weight="700" font-style="" opacity="1" y="-11.05" transform="rotate(0)"><tspan id="SvgjsTspan1074" dy="21" x="85"><tspan id="SvgjsTspan1075" style="text-decoration:;">第一个拦截器的 </tspan></tspan><tspan id="SvgjsTspan1076" dy="21" x="85"><tspan id="SvgjsTspan1077" style="text-decoration:;">PreHandle方法</tspan></tspan></text></g></g><g id="SvgjsG1078" transform="translate(615.4125061035156,543.9999923706055)"><path id="SvgjsPath1079" d="M 0 0L 170 0L 170 25L 0 25Z" stroke="none" fill="none"></path><g id="SvgjsG1080"><text id="SvgjsText1081" font-family="微软雅黑" text-anchor="middle" font-size="17px" width="170px" fill="#323232" font-weight="700" align="middle" anchor="middle" family="微软雅黑" size="17px" weight="700" font-style="" opacity="1" y="-11.05" transform="rotate(0)"><tspan id="SvgjsTspan1082" dy="21" x="85"><tspan id="SvgjsTspan1083" style="text-decoration:;">第一个拦截器的 </tspan></tspan><tspan id="SvgjsTspan1084" dy="21" x="85"><tspan id="SvgjsTspan1085" style="text-decoration:;">postHandle方法</tspan></tspan></text></g></g><g id="SvgjsG1086" transform="translate(623.4125061035156,313.99999237060547)"><path id="SvgjsPath1087" d="M 0 63C 0 -21 135 -21 135 63C 135 147 0 147 0 63Z" stroke="rgba(50,50,50,1)" stroke-width="2" fill-opacity="1" fill="#ffffff"></path><g id="SvgjsG1088"><text id="SvgjsText1089" font-family="&quot;Lucida Console&quot;" text-anchor="middle" font-size="18px" width="115px" fill="#323232" font-weight="700" align="middle" anchor="middle" family="&quot;Lucida Console&quot;" size="18px" weight="700" font-style="" opacity="1" y="37.8" transform="rotate(0)"><tspan id="SvgjsTspan1090" dy="22" x="67.5"><tspan id="SvgjsTspan1091" style="text-decoration:;">Handler / </tspan></tspan><tspan id="SvgjsTspan1092" dy="22" x="67.5"><tspan id="SvgjsTspan1093" style="text-decoration:;">Controller</tspan></tspan></text></g></g><g id="SvgjsG1094" transform="translate(605.9125061035156,230.99999237060547)"><path id="SvgjsPath1095" d="M 0 0L 173.5 0L 173.5 49L 0 49Z" stroke="none" fill="none"></path><g id="SvgjsG1096"><text id="SvgjsText1097" font-family="微软雅黑" text-anchor="middle" font-size="16px" width="174px" fill="#323232" font-weight="700" align="middle" anchor="middle" family="微软雅黑" size="16px" weight="700" font-style="" opacity="1" y="2.1" transform="rotate(0)"><tspan id="SvgjsTspan1098" dy="20" x="87"><tspan id="SvgjsTspan1099" style="text-decoration:;">更多的拦截</tspan></tspan><tspan id="SvgjsTspan1100" dy="20" x="87"><tspan id="SvgjsTspan1101" style="text-decoration:;">器。。。。。</tspan></tspan></text></g></g><g id="SvgjsG1102"><path id="SvgjsPath1103" d="M690.9125061035156 439.99999237060547L690.9125061035156 491.99999237060547L691.4125061035156 491.99999237060547L691.4125061035156 543.9999923706055" stroke="#323232" stroke-width="2" fill="none" marker-end="url(#SvgjsMarker1104)"></path></g><g id="SvgjsG1106"><path id="SvgjsPath1107" d="M690.4125061035156 586.9999923706055L690.4125061035156 624.9999923706055L25.412506103515625 624.9999923706055" stroke="#323232" stroke-width="2" fill="none" marker-end="url(#SvgjsMarker1108)"></path><rect id="SvgjsRect1110" width="42" height="26" x="355.9125061035156" y="611.9999923706055" fill="#ffffff"></rect><text id="SvgjsText1111" font-family="微软雅黑" text-anchor="middle" font-size="21px" width="42px" fill="#323232" font-weight="700" align="top" anchor="middle" family="微软雅黑" size="21px" weight="700" font-style="" opacity="1" y="606.8499923706055" transform="rotate(0)"><tspan id="SvgjsTspan1112" dy="26" x="376.9125061035156"><tspan id="SvgjsTspan1113" style="text-decoration:;">响应</tspan></tspan></text></g><g id="SvgjsG1114" transform="translate(317.4125061035156,36.99999237060547)"><path id="SvgjsPath1115" d="M 0 4Q 0 0 4 0L 615.5999908447266 0Q 619.5999908447266 0 619.5999908447266 4L 619.5999908447266 621Q 619.5999908447266 625 615.5999908447266 625L 4 625Q 0 625 0 621Z" stroke="rgba(255,51,51,1)" stroke-width="2" fill="none"></path><g id="SvgjsG1116"><text id="SvgjsText1117" font-family="微软雅黑" text-anchor="middle" font-size="13px" width="600px" fill="#323232" font-weight="400" align="middle" anchor="middle" family="微软雅黑" size="13px" weight="400" font-style="" opacity="1" y="302.55" transform="rotate(0)"></text></g></g><g id="SvgjsG1118" transform="translate(371.4125061035156,36.99999237060547)"><path id="SvgjsPath1119" d="M 0 0L 120 0L 120 40L 0 40Z" stroke="none" fill="none"></path><g id="SvgjsG1120"><text id="SvgjsText1121" font-family="微软雅黑" text-anchor="middle" font-size="17px" width="120px" fill="#ff3333" font-weight="700" align="middle" anchor="middle" family="微软雅黑" size="17px" weight="700" font-style="" opacity="1" y="6.95" transform="rotate(0)"><tspan id="SvgjsTspan1122" dy="21" x="60"><tspan id="SvgjsTspan1123" style="text-decoration:;">Spring容器</tspan></tspan></text></g></g><g id="SvgjsG1124"><path id="SvgjsPath1125" d="M605.9125061035156 255.49999237060547L456.4625015258789 255.49999237060547L456.4625015258789 599.5999908447266L25.012496948242188 599.5999908447266" stroke="#323232" stroke-width="2" fill="none" marker-end="url(#SvgjsMarker1126)"></path><rect id="SvgjsRect1128" width="54" height="22" x="504.18750381469727" y="244.49999237060547" fill="#ffffff"></rect><text id="SvgjsText1129" font-family="微软雅黑" text-anchor="middle" font-size="18px" width="54px" fill="#ff3333" font-weight="700" align="top" anchor="middle" family="微软雅黑" size="18px" weight="700" font-style="" opacity="1" y="241.79999237060548" transform="rotate(0)"><tspan id="SvgjsTspan1130" dy="22" x="531.1875038146973"><tspan id="SvgjsTspan1131" style="text-decoration:;">被拦截</tspan></tspan></text></g><g id="SvgjsG1132"><path id="SvgjsPath1133" d="M690.9125061035156 195.99999237060547L690.9125061035156 213.49999237060547L692.6625061035156 213.49999237060547L692.6625061035156 230.99999237060547" stroke="#323232" stroke-width="2" fill="none" marker-end="url(#SvgjsMarker1134)"></path></g><g id="SvgjsG1136"><path id="SvgjsPath1137" d="M690.4125061035156 146.99999237060547L690.4125061035156 116.99999237060547L690.9125061035156 140.99999237060547L690.9125061035156 170.99999237060547" stroke="#323232" stroke-width="2" fill="none" marker-end="url(#SvgjsMarker1138)"></path></g><g id="SvgjsG1140"><path id="SvgjsPath1141" d="M692.6625061035156 279.99999237060547L692.6625061035156 296.99999237060547L690.9125061035156 296.99999237060547L690.9125061035156 313.99999237060547" stroke="#323232" stroke-width="2" fill="none" marker-end="url(#SvgjsMarker1142)"></path></g></svg>